<mxfile host="Electron" modified="2024-03-21T14:13:20.551Z" agent="Mozilla/5.0 (X11; Linux x86_64) AppleWebKit/537.36 (KHTML, like Gecko) draw.io/24.0.4 Chrome/120.0.6099.109 Electron/28.1.0 Safari/537.36" etag="rfctl3dnKg7XqerrauuU" version="24.0.4" type="device">
  <diagram name="Page-1" id="5f0bae14-7c28-e335-631c-24af17079c00">
    <mxGraphModel dx="1195" dy="725" grid="1" gridSize="10" guides="1" tooltips="1" connect="1" arrows="1" fold="1" page="1" pageScale="1" pageWidth="1100" pageHeight="850" background="none" math="0" shadow="0">
      <root>
        <mxCell id="0" />
        <mxCell id="1" parent="0" />
        <mxCell id="scWajVH7LWahwXPQxoNZ-5" style="edgeStyle=orthogonalEdgeStyle;rounded=0;orthogonalLoop=1;jettySize=auto;html=1;entryX=0.5;entryY=0;entryDx=0;entryDy=0;" edge="1" parent="1" source="scWajVH7LWahwXPQxoNZ-2" target="scWajVH7LWahwXPQxoNZ-3">
          <mxGeometry relative="1" as="geometry" />
        </mxCell>
        <mxCell id="scWajVH7LWahwXPQxoNZ-2" value="" style="rounded=0;whiteSpace=wrap;html=1;" vertex="1" parent="1">
          <mxGeometry x="440" y="130" width="120" height="60" as="geometry" />
        </mxCell>
        <mxCell id="scWajVH7LWahwXPQxoNZ-6" style="edgeStyle=orthogonalEdgeStyle;rounded=0;orthogonalLoop=1;jettySize=auto;html=1;" edge="1" parent="1" source="scWajVH7LWahwXPQxoNZ-3" target="scWajVH7LWahwXPQxoNZ-4">
          <mxGeometry relative="1" as="geometry" />
        </mxCell>
        <mxCell id="scWajVH7LWahwXPQxoNZ-9" style="edgeStyle=orthogonalEdgeStyle;rounded=0;orthogonalLoop=1;jettySize=auto;html=1;exitX=1;exitY=0.5;exitDx=0;exitDy=0;" edge="1" parent="1" source="scWajVH7LWahwXPQxoNZ-3" target="scWajVH7LWahwXPQxoNZ-8">
          <mxGeometry relative="1" as="geometry" />
        </mxCell>
        <mxCell id="scWajVH7LWahwXPQxoNZ-3" value="Gitlab Monitor" style="rounded=0;whiteSpace=wrap;html=1;" vertex="1" parent="1">
          <mxGeometry x="440" y="280" width="120" height="60" as="geometry" />
        </mxCell>
        <mxCell id="scWajVH7LWahwXPQxoNZ-4" value="API Gitlab" style="rounded=0;whiteSpace=wrap;html=1;" vertex="1" parent="1">
          <mxGeometry x="440" y="430" width="120" height="60" as="geometry" />
        </mxCell>
        <mxCell id="scWajVH7LWahwXPQxoNZ-7" value="" style="endArrow=classic;html=1;rounded=0;entryX=0.75;entryY=1;entryDx=0;entryDy=0;exitX=0.75;exitY=0;exitDx=0;exitDy=0;" edge="1" parent="1" source="scWajVH7LWahwXPQxoNZ-4" target="scWajVH7LWahwXPQxoNZ-3">
          <mxGeometry width="50" height="50" relative="1" as="geometry">
            <mxPoint x="520" y="470" as="sourcePoint" />
            <mxPoint x="570" y="420" as="targetPoint" />
          </mxGeometry>
        </mxCell>
        <mxCell id="scWajVH7LWahwXPQxoNZ-8" value="Postgresql" style="rounded=0;whiteSpace=wrap;html=1;" vertex="1" parent="1">
          <mxGeometry x="620" y="220" width="120" height="60" as="geometry" />
        </mxCell>
        <mxCell id="scWajVH7LWahwXPQxoNZ-10" value="LOGS" style="rounded=0;whiteSpace=wrap;html=1;" vertex="1" parent="1">
          <mxGeometry x="621" y="340" width="120" height="60" as="geometry" />
        </mxCell>
        <mxCell id="scWajVH7LWahwXPQxoNZ-12" value="" style="endArrow=open;endFill=1;endSize=12;html=1;rounded=0;exitX=1;exitY=0.5;exitDx=0;exitDy=0;" edge="1" parent="1" source="scWajVH7LWahwXPQxoNZ-3">
          <mxGeometry width="160" relative="1" as="geometry">
            <mxPoint x="600" y="380" as="sourcePoint" />
            <mxPoint x="620" y="370" as="targetPoint" />
            <Array as="points">
              <mxPoint x="590" y="310" />
              <mxPoint x="590" y="370" />
            </Array>
          </mxGeometry>
        </mxCell>
        <mxCell id="scWajVH7LWahwXPQxoNZ-13" value="Stack EFK/ELK" style="ellipse;whiteSpace=wrap;html=1;aspect=fixed;" vertex="1" parent="1">
          <mxGeometry x="860" y="330" width="140" height="140" as="geometry" />
        </mxCell>
        <mxCell id="scWajVH7LWahwXPQxoNZ-14" value="Apache Superset" style="ellipse;whiteSpace=wrap;html=1;aspect=fixed;" vertex="1" parent="1">
          <mxGeometry x="845" y="130" width="130" height="130" as="geometry" />
        </mxCell>
        <mxCell id="scWajVH7LWahwXPQxoNZ-15" value="User" style="text;html=1;align=center;verticalAlign=middle;resizable=0;points=[];autosize=1;strokeColor=none;fillColor=none;" vertex="1" parent="1">
          <mxGeometry x="470" y="145" width="50" height="30" as="geometry" />
        </mxCell>
        <mxCell id="scWajVH7LWahwXPQxoNZ-16" value="" style="endArrow=classic;html=1;rounded=0;exitX=0;exitY=0.5;exitDx=0;exitDy=0;entryX=1;entryY=0.5;entryDx=0;entryDy=0;" edge="1" parent="1" source="scWajVH7LWahwXPQxoNZ-14" target="scWajVH7LWahwXPQxoNZ-8">
          <mxGeometry width="50" height="50" relative="1" as="geometry">
            <mxPoint x="570" y="400" as="sourcePoint" />
            <mxPoint x="620" y="350" as="targetPoint" />
          </mxGeometry>
        </mxCell>
        <mxCell id="scWajVH7LWahwXPQxoNZ-17" value="" style="endArrow=classic;html=1;rounded=0;exitX=-0.012;exitY=0.399;exitDx=0;exitDy=0;exitPerimeter=0;entryX=0.985;entryY=0.597;entryDx=0;entryDy=0;entryPerimeter=0;" edge="1" parent="1" source="scWajVH7LWahwXPQxoNZ-13" target="scWajVH7LWahwXPQxoNZ-10">
          <mxGeometry width="50" height="50" relative="1" as="geometry">
            <mxPoint x="570" y="400" as="sourcePoint" />
            <mxPoint x="620" y="350" as="targetPoint" />
          </mxGeometry>
        </mxCell>
        <mxCell id="scWajVH7LWahwXPQxoNZ-18" value="Interaction en ligne de commande" style="text;html=1;align=center;verticalAlign=middle;resizable=0;points=[];autosize=1;strokeColor=none;fillColor=none;" vertex="1" parent="1">
          <mxGeometry x="280" y="210" width="200" height="30" as="geometry" />
        </mxCell>
        <mxCell id="scWajVH7LWahwXPQxoNZ-19" value="Diagramme d&#39;application" style="text;html=1;align=center;verticalAlign=middle;resizable=0;points=[];autosize=1;strokeColor=none;fillColor=none;" vertex="1" parent="1">
          <mxGeometry x="550" y="48" width="160" height="30" as="geometry" />
        </mxCell>
      </root>
    </mxGraphModel>
  </diagram>
</mxfile>
